# Blender 3.5.1
# www.blender.org
mtllib Icosphere.mtl
o 棱角球
v 0.000000 1.000000 0.000000
v 0.894425 0.447215 0.000000
v 0.276385 0.447215 -0.850640
v -0.723600 0.447215 -0.525720
v -0.723600 0.447215 0.525720
v 0.276385 0.447215 0.850640
v 0.723600 -0.447215 -0.525720
v -0.276385 -0.447215 -0.850640
v -0.894425 -0.447215 0.000000
v -0.276385 -0.447215 0.850640
v 0.723600 -0.447215 0.525720
v 0.000000 -1.000000 0.000000
vn 0.1876 -0.7947 0.5774
vn 0.6071 -0.7947 -0.0000
vn -0.4911 -0.7947 0.3568
vn -0.4911 -0.7947 -0.3568
vn 0.1876 -0.7947 -0.5774
vn 0.9822 -0.1876 -0.0000
vn 0.3035 -0.1876 0.9342
vn -0.7946 -0.1876 0.5774
vn -0.7946 -0.1876 -0.5774
vn 0.3035 -0.1876 -0.9342
vn 0.7946 0.1876 0.5774
vn -0.3035 0.1876 0.9342
vn -0.9822 0.1876 -0.0000
vn -0.3035 0.1876 -0.9342
vn 0.7946 0.1876 -0.5774
vn 0.4911 0.7947 0.3568
vn -0.1876 0.7947 0.5774
vn -0.6071 0.7947 -0.0000
vn -0.1876 0.7947 -0.5774
vn 0.4911 0.7947 -0.3568
s 0
f 12//1 11//1 10//1
f 11//2 12//2 7//2
f 12//3 10//3 9//3
f 12//4 9//4 8//4
f 12//5 8//5 7//5
f 11//6 7//6 2//6
f 10//7 11//7 6//7
f 9//8 10//8 5//8
f 8//9 9//9 4//9
f 7//10 8//10 3//10
f 11//11 2//11 6//11
f 10//12 6//12 5//12
f 9//13 5//13 4//13
f 8//14 4//14 3//14
f 7//15 3//15 2//15
f 6//16 2//16 1//16
f 5//17 6//17 1//17
f 4//18 5//18 1//18
f 3//19 4//19 1//19
f 2//20 3//20 1//20
